<svg xmlns="http://www.w3.org/2000/svg" viewBox="0 0 2048 2048" width="100%" height="100%">
<path transform="translate(1e3 243)" d="m0 0h25l30 2 67 6 33 4 29 5 32 8 53 15 32 11 30 13 25 11 22 11 19 10 25 14 25 15 19 13 18 13 13 10 14 11 11 9 14 12 11 10 8 7 14 14 2 1v2l4 2 8 8v2h2l7 8 12 12 7 8 12 14 11 14 13 17 13 18 14 20 20 32 12 21 14 27 8 16 13 28 13 32 12 36 13 42 7 30 6 35 7 45 3 33 1 20v83l-3 37-10 60-5 29-8 32-15 49-10 28-11 26-12 27-18 36-10 18-15 25-22 33-12 17-14 19-13 16-12 14-12 13-9 10-12 13-23 23-11 9-7 7-11 9-17 14-11 9-17 12-14 10-13 9-25 16-22 13-46 24-21 10-43 18-44 15-35 10-36 8-49 9-34 5-35 3-17 1h-57l-36-2-29-3-51-9-31-5-24-6-46-15-17-5-28-11-39-17-23-11-27-14-25-15-26-16-17-12-19-14-13-10-16-13-15-13-10-9-11-9-9-9-8-7-12-12v-2h-2l-7-8-12-13-9-11-12-13-9-11-13-16-13-18-11-16-11-17-16-27-10-17-15-28-13-27-19-47-10-28-15-52-8-32-5-29-4-32-5-52-3-27v-45l3-21 2-15 3-43 6-48 5-24 10-35 12-41 8-24 12-29 9-21 11-23 10-19 11-21 8-13 12-20 10-16 8-11 12-17 14-18 10-13 8-10 12-14 11-12 7-8 33-33 8-7 10-9 11-9 10-9 10-8 13-10 16-12 17-12 21-14 22-13 24-14 28-14 19-10 31-13 27-11 34-11 44-12 28-7 35-6 47-5 33-3 13-2z" fill="#FDEECB"/>
<path transform="translate(766,749)" d="m0 0h51l25 4 21 6 21 9 16 10 14 12 7 7 10 13 10 15 9 19 7 22 7 32 3 21v9h-58l-6-2-4-23-5-19-6-15-8-16-9-14-9-10-10-8-16-8-15-5-15-3h-20l-18 2-18 4-20 8-14 9-12 11-9 13-10 19-7 24-4 24-1 11-1 116v64l1 55 1 30 2 19 5 23 5 15 9 17 14 14 15 10 10 5 15 6 19 4 8 1h37l19-3 16-6 16-9 16-15 9-11 9-16 5-17 3-15 2-20 1-33v-50l-1-16-3-1-26-1-81-1-3-2-1-9v-35l1-7 137-1h39l1 5 1 86v60l-3 31-5 26-8 24-8 16-6 10-13 17-12 12-10 7-13 8-21 10-14 4-27 5-16 2h-48l-26-3-23-5-16-6-24-13-11-8-14-12-9-11-9-14-8-16-11-33-3-17-1-10-1-22v-264l2-30 2-18 4-17 10-30 10-19 7-10 4-5 6-7h2l2-4 10-8 10-7 25-12 29-9 21-4z" fill="#CB9509"/>
<path transform="translate(1112,754)" d="m0 0h24l1 21 1 256 36 1 64 1h129v-230l1-44 2-4 26-1h33l1 111v494h-51l-9-1-1-19-3-221v-28l-96-1h-131l-1 1-1 41-1 227-7 1h-45l-6-2-1-5-1-19-1-103-1-72v-397l1-5 3-1z" fill="#CB9509"/>
<path transform="translate(1247,276)" d="m0 0 17 4 36 12 20 8 39 17 24 12 19 10 25 14 25 15 19 13 18 13 13 10 14 11 11 9 14 12 11 10 8 7 14 14 2 1v2l4 2 8 8v2h2l7 8 12 12 7 8 12 14 11 14 13 17 13 18 14 20 20 32 12 21 14 27 8 16 13 28 13 32 12 36 13 42 7 30 6 35 7 45 3 33 1 20v83l-2 28-2 2-1-8v-9l1-9-1-60-2-26-2-12-1-14-2-14-2-13-2-26-6-37-10-38-3-13-10-25-5-12-6-24-9-25-12-23-8-16-7-12-6-9-16-32-5-8-6-11-11-15-6-8-8-10-16-24-13-16-6-8-11-14-9-12-9-9-7-8-31-31-5-4-5-7-8-7-9-9-13-10-10-8-28-21-10-9-17-11-17-12-11-8-13-8-10-6-15-10-14-8-10-6-8-5-4-4-8-5-17-6-11-7-14-4-9-5-14-4-11-2-11-3-7-6z" fill="#FEFEDD"/>
<path transform="translate(873,258)" d="m0 0 3 1-9 3-14 3-10 4-9 4-18 4-15 8-7 2-20 3-36 13-13 6-15 7-18 8-13 7-14 5-19 9-10 9-5 7-8 7-13 10-10 5-18 11-16 7-10 7-12 7-8 7-8 6-9 11-8 6-5 2-3 9-10 10-7 4-2 3-4 2h-3v2l-5 4-4 8-6 8-5 6-5 2-2 6-7 8-10 9-7 8-20 20h-2v2l-8 7-22 33-7 10-2 4-3 13-8 13-7 7-4 6-4 7-5 8-2-1 10-20 11-18 12-20 10-16 8-11 12-17 14-18 10-13 8-10 12-14 11-12 7-8 33-33 8-7 10-9 11-9 10-9 10-8 13-10 16-12 17-12 21-14 22-13 24-14 28-14 19-10 31-13 27-11 34-11 44-12 28-7z" fill="#ffd"/>
<path transform="translate(430,1531)" d="m0 0 6 4 9 11 9 10 6 7 5 5 14 12 8 7 10 8 10 7 21 21 11 7 7 7 5 6 10 7 7 7 5 4 10 5 5 4v2h2v2l4 2 10 7-1 2-18-12-18-13-21-16-16-13-15-13-10-9-11-9-9-9-8-7-12-12v-2h-2l-7-8-12-13-9-11-5-5z" fill="#FEFEDC"/>
<path transform="translate(282,783)" d="m0 0h2v13l-2 9-7 13-3 13-4 10-5 19-5 27-2 1 2-16 5-23z" fill="#ffd"/>
<path transform="translate(255,891)" d="m0 0h2v24l-4 19-1 11h-2l1-20z" fill="#ffd"/>
<path transform="translate(1139,1006)" d="m0 0 3 4 1 7 1 10-3 3h-2z" fill="#ffd"/>
<path transform="translate(292,753)" d="m0 0h2l-3 13-2 3h-2l3-11z" fill="#ffd"/>
<path transform="translate(326,677)" d="m0 0 2 1-5 10-4 7-2-1z" fill="#ffd"/>
</svg>